<?xml version="1.0" standalone="no"?>
<!DOCTYPE svg PUBLIC "-//W3C//DTD SVG 20010904//EN"
 "http://www.w3.org/TR/2001/REC-SVG-20010904/DTD/svg10.dtd">
<svg version="1.0" xmlns="http://www.w3.org/2000/svg"
 width="2712.000000pt" height="441.000000pt" viewBox="0 0 2712.000000 441.000000"
 preserveAspectRatio="xMidYMid meet">

<g transform="translate(0.000000,441.000000) scale(0.100000,-0.100000)"
fill="#000000" stroke="none">
<path d="M14455 4403 c-67 -17 -196 -68 -272 -107 -264 -137 -463 -376 -563
-675 -63 -187 -90 -457 -71 -693 13 -163 33 -263 73 -378 63 -177 138 -300
262 -428 167 -172 424 -305 811 -417 394 -115 498 -158 587 -246 66 -66 83
-111 76 -211 -9 -119 -80 -200 -205 -233 -84 -23 -263 -30 -364 -16 -234 34
-333 158 -357 446 l-7 90 -465 0 -465 0 3 -125 c16 -784 374 -1252 1047 -1369
1041 -180 1691 230 1810 1143 9 67 15 194 15 290 0 271 -32 440 -120 625 -63
131 -116 205 -221 307 -180 174 -398 277 -894 419 -425 122 -544 196 -573 356
-23 122 35 231 156 293 121 62 342 59 454 -7 111 -65 188 -213 188 -362 l0
-45 466 0 467 0 -7 129 c-12 236 -52 412 -130 577 -139 292 -367 497 -681 610
l-80 29 -460 2 c-253 0 -469 -1 -480 -4z"/>
<path d="M21675 4405 c-5 -2 -48 -15 -95 -30 -362 -116 -660 -389 -844 -775
-175 -366 -256 -803 -256 -1374 0 -810 180 -1405 538 -1778 232 -242 487 -371
847 -429 123 -20 446 -18 579 5 362 60 661 225 879 485 262 312 405 709 469
1301 16 152 16 680 0 840 -96 944 -465 1521 -1105 1731 l-89 29 -456 -1 c-252
0 -461 -2 -467 -4z m658 -1010 c187 -64 320 -222 395 -470 47 -154 62 -277 69
-569 14 -643 -55 -952 -257 -1156 -112 -112 -237 -163 -400 -163 -155 0 -263
41 -371 140 -151 140 -238 354 -268 657 -14 138 -14 651 -1 787 38 390 168
639 391 748 134 65 298 75 442 26z"/>
<path d="M11 4363 c0 -16 161 -986 358 -2158 l357 -2130 539 -3 c296 -1 542 1
546 5 4 5 97 596 206 1315 109 720 201 1308 205 1308 4 0 10 -10 13 -22 3 -13
93 -600 200 -1306 106 -705 197 -1287 200 -1292 4 -6 200 -10 545 -10 l538 0
6 28 c11 52 716 4263 716 4278 0 12 -72 14 -490 14 l-490 0 -5 -22 c-3 -13
-77 -558 -165 -1213 -88 -654 -163 -1196 -165 -1204 -3 -8 -9 -11 -13 -7 -4 4
-90 555 -192 1224 l-186 1217 -487 3 -487 2 -5 -22 c-2 -13 -82 -563 -176
-1223 -94 -660 -173 -1202 -175 -1204 -2 -2 -7 -2 -10 1 -3 3 -85 554 -182
1224 l-177 1219 -512 3 -513 2 1 -27z"/>
<path d="M4845 4378 c-3 -7 -4 -978 -3 -2158 l3 -2145 493 -3 492 -2 0 2160 0
2160 -490 0 c-383 0 -492 -3 -495 -12z"/>
<path d="M6540 2230 l0 -2161 1093 3 1092 4 80 22 c346 97 581 376 677 803 21
93 23 129 23 339 0 267 -12 352 -72 533 -82 247 -231 418 -440 502 -68 28 -77
47 -32 65 53 22 171 104 218 151 99 100 180 257 221 432 34 145 43 252 37 442
-4 152 -9 196 -32 285 -95 368 -325 626 -633 713 -76 21 -87 21 -1154 25
l-1078 3 0 -2161z m1721 1198 c118 -40 188 -198 176 -392 -9 -150 -64 -264
-146 -306 -38 -19 -57 -20 -401 -20 l-360 0 0 365 0 365 349 0 c238 0 359 -4
382 -12z m92 -1631 c46 -20 101 -85 127 -153 32 -82 40 -259 15 -350 -23 -85
-65 -148 -122 -184 l-47 -30 -398 0 -398 0 0 365 0 365 395 0 c309 0 403 -3
428 -13z"/>
<path d="M9904 4377 c-3 -8 -3 -652 -1 -1433 4 -1551 1 -1486 63 -1763 136
-608 489 -996 1029 -1130 116 -28 209 -41 363 -48 423 -18 789 89 1057 310
283 234 457 588 532 1078 15 103 17 251 20 1557 l4 1442 -493 -2 -493 -3 -5
-1385 c-6 -1366 -6 -1386 -27 -1470 -82 -329 -254 -493 -518 -493 -266 0 -440
170 -518 508 -21 89 -21 112 -24 1468 l-4 1377 -490 0 c-401 0 -491 -2 -495
-13z"/>
<path d="M16880 2230 l0 -2160 493 2 492 3 3 818 2 817 545 0 545 0 0 -820 0
-820 493 2 492 3 0 2155 0 2155 -492 3 -493 2 0 -790 0 -790 -545 0 -545 0 -2
788 -3 787 -492 3 -493 2 0 -2160z"/>
<path d="M24340 2230 l0 -2160 493 2 492 3 3 697 2 697 448 3 447 3 80 28
c130 44 237 110 340 212 212 210 345 516 396 910 15 116 15 494 0 610 -37 284
-122 535 -246 725 -60 90 -197 232 -280 287 -89 60 -133 80 -242 110 l-98 27
-917 4 -918 3 0 -2161z m1545 1099 c59 -31 115 -106 140 -189 22 -74 31 -276
16 -367 -22 -130 -89 -235 -176 -274 -35 -16 -69 -19 -287 -19 l-248 0 0 440
0 441 253 -3 c249 -3 253 -3 302 -29z"/>
</g>
</svg>
